<?xml version="1.0" encoding="utf-8"?>
<!-- Generator: Adobe Illustrator 23.0.5, SVG Export Plug-In . SVG Version: 6.00 Build 0)  -->
<svg version="1.1" id="Layer_1" xmlns="http://www.w3.org/2000/svg" xmlns:xlink="http://www.w3.org/1999/xlink" x="0px" y="0px"
	 viewBox="0 0 390.5 163.4" style="enable-background:new 0 0 390.5 163.4;" xml:space="preserve">
<style type="text/css">
	.st0{clip-path:url(#SVGID_2_);fill-rule:evenodd;clip-rule:evenodd;fill:#6DBE45;}
	.st1{clip-path:url(#SVGID_2_);fill-rule:evenodd;clip-rule:evenodd;fill:#253328;}
	.st2{clip-path:url(#SVGID_2_);fill-rule:evenodd;clip-rule:evenodd;fill:#E9A036;}
	.st3{clip-path:url(#SVGID_2_);fill-rule:evenodd;clip-rule:evenodd;fill:#F5E9D9;}
	.st4{clip-path:url(#SVGID_2_);fill-rule:evenodd;clip-rule:evenodd;fill:#FCB32A;}
	.st5{clip-path:url(#SVGID_2_);fill-rule:evenodd;clip-rule:evenodd;fill:#E86724;}
	.st6{clip-path:url(#SVGID_2_);fill-rule:evenodd;clip-rule:evenodd;fill:#BF1F3B;}
	.st7{fill:#FFFEFF;}
	.st8{font-family:'MyriadPro-Regular';}
	.st9{font-size:23.7491px;}
	.st10{letter-spacing:-1;}
</style>
<g>
	<defs>
		<rect id="SVGID_1_" x="-180.8" y="-255.1" width="720" height="720"/>
	</defs>
	<clipPath id="SVGID_2_">
		<use xlink:href="#SVGID_1_"  style="overflow:visible;"/>
	</clipPath>
	<path class="st0" d="M327.4,39.2c-11.8,7.8-16,19.4-13.6,32.6c2.4,12.8,10.4,21.6,23.4,25.8c11.4,3.7,22,2.6,32.4-2.7
		c3.2-1.6,5.4-1.5,7,2.2c1.8,4.4,3.5,9,6.2,12.8c3.4,4.7,1.3,7-2.7,8.9c-4.6,2.2-9.4,4.1-14.1,6.2c-11.1,0.6-22.2,2.5-33.3-0.3
		c-41.4-10.3-65.4-57.2-35.4-95.3c1.8-2.2,4.7-3.6,5.1-6.9c19.4-15.6,41.4-19.9,65.4-14.6c5.5,1.2,10.7,4.2,15.9,6.6
		c1.6,0.7,2.3,1.9,1.2,4.3c-3.4,7.1-7.4,13.9-11.7,20.5C359.1,29.7,341.1,29.7,327.4,39.2 M376.8,21c4-2.6,1.2-3.8-1.1-4.8
		c-6.2-2.8-12.7-4.6-19.6-4.8c-8.9,0.6-18.1-1.4-26.6,2.7c8,1,16.1-1,23.9,0.8c7.5,1.6,15.7,1.9,21.8,7.9
		C375.8,23.3,376.4,21.7,376.8,21 M308,55.9L308,55.9c-4.7,4.7-4.5,11.2-5.4,17.2c-0.4,2.6,0,5.9-4.1,2.9c-1.7-1.2-3.3-3-5.4-1.1
		c-2,1.8-1.6,4.4-0.8,6.4c4.8,11.7,11,22.3,22.1,29.4c20.1,12.9,40.9,13,62.4,4.1c1.3-2.5-1-11.1-4-13.9c-3-2.9-4.3,1.6-6.7,1.6
		c-3.5,2.4-7.8,2-11.6,3.4c-4.5,0.4-8.8-1-13.1-1.9c-18.3-3.6-30.6-17.1-33-35.5c-0.6-4.4,1.8-8.5,0.5-12.9
		C308.3,55,308.1,55.2,308,55.9"/>
	<path class="st1" d="M302.4,22.5c-0.4,3.2-3.3,4.6-5.1,6.9c-30,38.1-6,85,35.4,95.3c11.1,2.8,22.2,0.9,33.3,0.3
		c-6,6-14.1,5.5-21.6,6.3c-29.5,3.2-56.1-12.6-67.6-41.8C267.5,65.8,279.7,36.3,302.4,22.5"/>
	<path class="st1" d="M327.4,39.2c13.7-9.4,31.7-9.4,45.8,0c-4.9,4.6-9.9,5.8-16.3,2.1C347.7,35.9,337.4,37.7,327.4,39.2"/>
	<path class="st1" d="M354.5,105.9c-6.9-2.2-14,0.1-21.3-2.1c-19.4-6-30.2-27.5-25.6-44.6c0.3-1.1,0.3-2.3,0.4-3.4
		c0,0-0.1,0.1-0.1,0.1l0.5,0.1l0.4-0.3c1.4,4.3-1,8.5-0.5,12.9c2.4,18.4,14.7,31.8,33,35.5C345.7,104.9,350,106.3,354.5,105.9"/>
	<path class="st1" d="M376.9,114.9c-1.6-3.5-3.3-6.9-4.7-10.4c-1.3-3.2-3.4-3.1-6-1.9c2.4,0,3.8-4.5,6.7-1.6
		C375.9,103.8,378.2,112.3,376.9,114.9"/>
	<path class="st1" d="M376.8,21c-1.5-4.8-6.3-4.4-9.8-6c-3.5-1.6-7.7-0.9-10.8-3.6c6.9,0.3,13.4,2,19.6,4.8
		C378,17.2,380.8,18.4,376.8,21"/>
	<path class="st2" d="M308.8,55.7l-0.4,0.3l-0.5-0.1C308.1,55.2,308.3,55,308.8,55.7"/>
	<path class="st3" d="M315.7,99.6c2,0.6,3.6,1.8,3.4,4.2c-0.2,2.1-1.8,2.4-3.5,2.2c-1.8-0.3-3.7-0.6-3.5-3.2
		C312.3,100.7,313.4,99.5,315.7,99.6"/>
	<path class="st3" d="M302.5,92c-2.8,0.9-2.8-1.1-3-3c-0.2-2.1,0.5-3.6,2.8-3.8c2.1-0.2,3.5,0.8,3.7,3
		C306.2,90.7,305.2,92.1,302.5,92"/>
	<path class="st3" d="M365.7,114.3c-1.8,0.5-2.8-0.2-2.9-2.2c-0.1-2.2,0.3-4.1,3-4.3c2.1-0.2,3.4,0.8,3.7,2.9
		C369.8,113.5,368.2,114.3,365.7,114.3"/>
	<path class="st3" d="M352.6,114.1c0.2,2.9-1.9,3.4-4,3.6c-2.6,0.3-2.1-1.8-2.3-3.3c-0.3-2.1,0.4-3.6,2.8-3.7
		C351.5,110.6,352.4,112,352.6,114.1"/>
	<path class="st3" d="M332.2,107.9c2,0,3.5,0.7,3.7,3c0.2,2.2-0.8,3.3-3.1,3.4c-2.3,0.1-3.2-1.1-3.3-3.3
		C329.4,109.1,330.2,108,332.2,107.9"/>
	<path class="st4" d="M228.8,18.3c6.8-5.3,14.2-9.5,22.9-10.8c14.2-2.2,27.4,0.9,39.8,8c1.6,0.9,4.2,2.2,2.6,4.7
		c-3.8,6.1-5.6,13.3-10.6,18.6c-4.9-3-10-5.7-15.6-6.6c-6.6-1-13.7-2.6-18.9,3.9c-4,6.5-0.1,10.5,5,13.3c5.9,3.3,12.4,5.8,18.5,8.8
		c10.9,5.3,21,11.7,24.8,24c5.3,17.1-4.2,35.2-21.2,41.5c-2.2,0.8-4.2,1.6-5.9,3.2c-1.1-1.6-2.4-0.4-3.7-0.3
		C248,129,231,126,215.4,115.7c-3.9-2.5-5.3-4.5-2.1-8.9c3.6-4.9,6.3-10.5,9.4-15.8c2.6-2,4,0.4,5.8,1.5c9.2,5.9,18.5,11.6,30.2,9.3
		c5-0.9,9.1-3,9.9-8.8c0.8-5.8-2.7-8.9-7-11.3c-3.3-1.9-6.8-3.6-10.3-5.3c-5.3-2.6-10.8-4.9-15.7-8.4C221.2,57.8,217,43,223.8,27.9
		C225.3,24.6,228.6,22.3,228.8,18.3 M255.7,11.5c-3.8,0.5-7.9,0.3-11.3,3.9c4.7,0.8,8.5-0.4,12.3-1.5c9.5-0.1,18.3,2.7,26.8,6.7
		c1.2,0.5,1.3,5.4,4,1.3c2.5-3.8-1.4-3.6-2.9-4.3C275.5,13.1,265.8,11.1,255.7,11.5 M242.2,106.3c-5.2-3.1-10.3-6.2-15.6-9.2
		c-1.8-1-2.2,0.5-2.4,2c-1.3,2.4-2.2,5-3.9,7c-3.2,3.8-1.7,5.1,2.1,7.3c14.2,8.4,29.4,9.5,45.1,7.3c13.7-1.9,23.3-11.4,24.4-22.8
		c3.6-8.4,1.6-15.8-3.9-22.5c-5-6.1-11.6-10.1-18.8-13.3c-6.5-2.8-13.1-5.3-19-9.3c-5.3-3.7-9.5-8-7.3-15.3c0.2-0.6,0.3-1.5-0.9-0.9
		c-0.4,0.2-0.7,0.6-1,0.9c-4.3,8.4-2.9,12.5,3.8,18c8.8,7.3,20,9.8,29.3,15.9c6.5,4.2,10.7,9.7,13.7,16.5c1.5,3.2,0.7,6.4-2.5,7.5
		c-3.1,1.2-6.1,0.4-7-3.9c-0.3-1.4-0.1-3.9-3.3-4.2c0,3.2,1.1,6.2-0.8,9.5C268.9,106.3,255.2,111.3,242.2,106.3"/>
	<path class="st1" d="M228.8,18.3c-0.1,4-3.5,6.3-5,9.5c-6.8,15.1-2.6,29.9,11.8,40.2c4.8,3.5,10.3,5.8,15.7,8.4
		c3.5,1.7,7,3.4,10.3,5.3c4.3,2.5,7.9,5.5,7,11.3c-0.8,5.8-4.8,7.8-9.9,8.8c1.8-6.9-1.2-11.4-7.2-14.5c-6.3-3.2-12.6-6.3-18.9-9.6
		C212.1,67,204.2,48.1,218.5,26C220.8,22.5,223.8,18.8,228.8,18.3"/>
	<path class="st1" d="M222.7,91.1c-3.1,5.3-5.8,10.8-9.4,15.8c-3.2,4.3-1.8,6.3,2.1,8.9C231,126,248,129,266.3,126.7
		c1.2-0.2,2.6-1.3,3.7,0.3c-11.8,7.8-25,6.8-37.8,4.9c-9.3-1.4-18.5-4.6-27-9.2c-2.7-1.5-4.5-4.1-3.4-5.8
		c5.3-8.4,7.8-18.8,17.2-24.3C220.1,91.9,221.4,91.6,222.7,91.1"/>
	<path class="st1" d="M248.8,36.2c5.2-6.5,12.3-4.9,18.9-3.9c5.6,0.9,10.7,3.6,15.6,6.6c-4.4,4.4-8.8,7.2-15.2,2.8
		C262.5,37.8,255.5,37.3,248.8,36.2"/>
	<path class="st1" d="M291.8,98c1.8-18.3-9.5-27.4-24.1-34.2c-5.6-2.6-11.3-5.1-16.8-7.9c-7.4-3.8-11.7-9.5-10-18.3
		c0.4-0.3,0.7-0.7,1.1-0.9c1.2-0.6,1,0.3,0.9,0.9c-2.2,7.3,1.9,11.6,7.3,15.3c5.8,4,12.5,6.5,19,9.3c7.2,3.1,13.8,7.1,18.8,13.3
		C293.4,82.2,295.4,89.7,291.8,98"/>
	<path class="st1" d="M255.7,11.5c10.2-0.4,19.9,1.6,29,6.1c1.5,0.7,5.4,0.5,2.9,4.3c-2.7,4.1-2.9-0.8-4-1.3
		c-8.5-4-17.3-6.7-26.8-6.7C256.4,13.1,256,12.3,255.7,11.5"/>
	<path class="st1" d="M236.8,107.6c-2.3-5.7-8.4-5.7-12.6-8.5c0.2-1.4,0.6-3,2.4-2c5.3,2.9,10.4,6.1,15.6,9.2
		C240.9,109.1,237.9,104.5,236.8,107.6L236.8,107.6z"/>
	<path class="st3" d="M236.8,107.6c0.4,2.2,3,4.5-0.2,6.6c-1.4,0.9-2.9,1.6-4.4,0.5c-1.5-1-1.5-2.7-1.3-4.4
		C231.3,106.3,234.7,108.4,236.8,107.6L236.8,107.6z"/>
	<path class="st3" d="M260.4,115c-0.2,2.9-1.6,4-3.9,4.4c-2.7,0.5-3-1.5-3.3-3.3c-0.5-2.8,1.4-3.8,3.6-4
		C258.9,111.8,260,113.3,260.4,115"/>
	<path class="st3" d="M274.7,104.7c2.2,0,3.5,1.1,3.7,3.2c0.3,2.2-0.7,3.5-2.9,3.8c-2.4,0.3-3.2-1.1-3.5-3.2
		C271.8,106.4,272.3,104.9,274.7,104.7"/>
	<path class="st5" d="M200.5,9.2c10.9-3.7,21.9-0.9,34.4-1.7c-7.5,11.4-14.1,21.3-20.7,31.3c-6.2,9.3-12.2,18.7-18.7,27.7
		c-2.9,4-3.8,8-3.7,12.8c0.3,13.5,0.3,27,0.4,40.5c0,1.9,0.1,3.7-1.5,5c-7-1.2-14.1-0.5-21.2-0.4c-4,0-5-1.3-5-5.1
		c0.2-13.9,0-27.9,0.2-41.9c0-3.8-0.9-7-3.1-10.2c-13-19.3-25.8-38.7-38.7-58.1c4.7-3.6,10.1-0.9,15.1-1.8
		c12.3-2.4,19.9,2.8,25.3,13.8c3.1,6.4,8,12,12.1,17.9c0.3,2.1,1.2,3.8,3.7,5C185.6,32.1,194.9,21.8,200.5,9.2 M171.5,44.1
		L171.5,44.1c-2.9-6.7-8.4-12-11.2-18.7c-5.1-12-14.2-14.6-25.7-12.8c-0.8,0.1-1.7,0.3-2.5,0.4c0.3,0.5,0.6,1,0.9,1.5
		c1.7,3.2,4.9,2.3,7.3,2c5.6-0.7,8.6,1.6,11.4,6.3c6.2,10.5,13.1,20.6,19.6,31c2.1,3.4,3.8,3.6,5.9,0.2
		C176.9,49.7,174.3,46.9,171.5,44.1 M185.1,119.7c1.6-0.1,1.7-1.2,1.7-2.3c0-14.6,0-29.1,0-43.7c0-1-0.4-1.7-1.5-1.9
		c1.6-1.6,1.3-4.5-0.6-3.2c-6.1,4.2-9,0-12.8-3.8c-0.7,13.6-0.4,26.7-0.7,39.9C170.8,119.4,170.5,119.4,185.1,119.7 M205,12.6
		c5.8,3.4,12.2,1.2,18.1,2.9c0.4,0.1,1.7-1.1,1.8-1.7c0.2-1.1-0.9-1.2-1.9-1.2C217,12.6,211,12.6,205,12.6"/>
	<path class="st1" d="M123,9.3c12.9,19.4,25.7,38.8,38.7,58.1c2.2,3.2,3.1,6.3,3.1,10.2c-0.2,14,0,27.9-0.2,41.9
		c-0.1,3.8,1,5.1,5,5.1c7.1-0.1,14.1-0.8,21.2,0.4c-9.8,7.9-21.4,4.6-32.3,5.1c-4,0.2-3.2-3.1-3.2-5.5c-0.1-13.5-0.2-27,0.1-40.5
		c0.1-4.3-1.1-7.9-3.5-11.5c-11.6-17-22.9-34.2-34.4-51.3C112,13.1,112.6,11.9,123,9.3"/>
	<path class="st1" d="M200.5,9.2c-5.6,12.6-14.9,22.8-21.3,34.9c-2.5-1.2-3.4-2.9-3.7-5c3.9-5.6,8.2-11,11.6-16.9
		C190.4,16.6,194.5,12.1,200.5,9.2"/>
	<path class="st1" d="M171.5,44.2c-2.3,1-2.6-1.2-3.4-2.3c-4.4-6.6-9.3-13.1-13-20.1c-3.4-6.3-7.8-9-14.8-7.9
		c-2.4,0.4-5,0.4-7.4,0.6c-0.3-0.5-0.6-1-0.9-1.5c0.8-0.1,1.7-0.3,2.5-0.4c11.6-1.8,20.7,0.8,25.7,12.8
		C163.1,32.1,168.6,37.4,171.5,44.2"/>
	<path class="st1" d="M185.1,119.7c0.1-16,0.2-32,0.3-48c1,0.2,1.5,0.9,1.5,1.9c0,14.6,0,29.1,0,43.7
		C186.8,118.5,186.6,119.6,185.1,119.7"/>
	<path class="st1" d="M205,12.6c6,0,12,0,18,0c1,0,2,0.1,1.9,1.2c-0.1,0.7-1.3,1.9-1.8,1.7C217.2,13.8,210.8,16.1,205,12.6"/>
	<path class="st1" d="M177.1,54c-3.2-2.6-6.1-5.3-5.6-9.9C174.3,46.9,176.9,49.7,177.1,54"/>
	<path class="st3" d="M182.5,89c0.3,3-1.5,4.1-4,4.2c-3.4,0.2-3.3-2.7-3.5-4.7c-0.3-2.2,1.4-4,3.5-4C181.1,84.5,182.3,86.5,182.5,89
		"/>
	<path class="st3" d="M178.5,108.5c2.8,0.3,4,1.6,3.9,4.1c-0.2,2.4-1.9,2.9-3.9,2.8c-2.3-0.1-3.1-1.6-3.1-3.6
		C175.4,109.4,176.7,108.6,178.5,108.5"/>
	<path class="st6" d="M48.1,75.4c-1.6,13.8-0.3,27.6-0.7,41.5c-0.1,2.7,0.6,5.5-2.5,7.2c-6-0.1-12-0.7-17.9-0.2
		c-5.9,0.5-7-1.6-7-7.2C20.2,80.4,20,44.2,20,7.9c8.3-2.4,16.8-0.6,25.1-1c3-0.1,3.4,2.5,4.6,4.4c11,17,21.1,34.5,33.2,50.6
		c2.1,5.7,5.5,10.5,10,15.7c0-13.2,0.2-25.3-0.1-37.4c-0.2-10.9,0.9-21.9-0.6-32.7c7.9-1.6,15.9-0.4,23.9-0.7c4.1-0.1,3.3,3,3.3,5.4
		c0.1,16.7,0.1,33.4,0.1,50.1c0,18.1,0,36.2,0,54.2c0,2.7,0.2,5.5-1.1,8.1c-4.8-2-10-1.3-14.8-0.8c-7.7,0.7-12.2-1.8-16.3-8.7
		C75.6,95.7,62.9,76.7,50.5,57.6c-0.7-1-0.8-3.2-3.4-2.6C47.5,61.8,46.1,68.6,48.1,75.4 M41.4,118.7c0.3-1.1,0.8-2.1,0.8-3.2
		c0-21.1,0.1-42.1,0-63.2c0-1.5,0.7-3.3-1.1-4.3c-4.5,1.3-4.4,5-4.1,8.4c0.8,10.1-1.4,20.1,0.1,30.2c0.3,2.2-0.1,4.3-2.1,5.4
		c-1.5,0.8-2.5-0.6-3.6-1.3c-1.1-0.7-0.4-4-3-2.3c-1.3,0.8-2.3,2.2-2.4,4c0,3.7-0.2,7.3-0.2,11C25.8,118.7,25.8,118.7,41.4,118.7
		 M25.7,13.9c1.7,2.4,4.2,1.6,6.3,1.3c5.9-0.8,9.3,1.8,12.1,6.7c4.2,7.3,8.8,14.4,13.3,21.5c7.7,12.4,15.3,24.8,23.4,36.9
		c3.1,4.7,9.3,8,2.9,14.6c-0.7,0.8,0,3.7,0.8,5.2c6,10.6,11.4,22.3,27.2,18.8c0.7-0.1,1.3-0.2,2-0.3c2.6-0.9,1.3-3.1,1.3-4.7
		c0.1-32.2,0.1-64.5-0.1-96.7c0-1.5,2.8-6-2.8-4.5c-4.5,0.5-9,1-13.5,1.4c1.1,1.1,2.2,1.3,3.3,1.3c9.1,0,9.1,0,9,8.7
		c-0.1,10.8-1.1,21.6-0.1,32.3c1,10.6-6.5,20.4-2.1,31.1c0.8,1.9-0.4,4.3-3.3,3.8c-1.9-0.3-5.1-0.4-4.3-3.2c2.2-7.3-3.3-3.1-5.4-4
		c-4,0.1-6.5-1.6-8.7-5.1C74,58.1,60.6,37.3,47.2,16.5C44,11.5,31,10,25.7,13.9"/>
	<path class="st6" d="M20,7.9C20,44.2,20.2,80.4,20,116.6c0,5.6,1.1,7.7,7,7.2c5.9-0.5,11.9,0.1,17.9,0.2c-9.7,8.5-21.4,4-32.3,4.7
		c-2.5,0.2-2.2-2.5-2.2-4.3c0-36,0-72,0-108.1C10.4,9.9,15.9,9.8,20,7.9"/>
	<path class="st1" d="M48.1,75.4c-2-6.7-0.6-13.6-0.9-20.4c2.6-0.7,2.7,1.5,3.4,2.6c12.4,19.1,25.1,38.1,36.8,57.6
		c4.1,6.9,8.6,9.4,16.3,8.7c4.9-0.5,10-1.2,14.8,0.8c-10,6.6-21.2,3.7-31.9,4.3c-3.9,0.2-5.3-2.8-7.1-5.5
		C69,107.4,58.5,91.4,48.1,75.4"/>
	<path class="st1" d="M92.2,7.6c1.6,10.9,0.4,21.8,0.6,32.7c0.2,12.1,0.1,24.2,0.1,37.4c-4.5-5.2-7.9-10-10-15.7
		c0.2-12.6,0.8-25.2,0.3-37.8C82.9,16.3,84.3,10.5,92.2,7.6"/>
	<path class="st6" d="M95.8,84.2c-4.6,2.6-7.5,0.9-10.1-3.3C73.4,61.4,60.4,42.3,48.6,22.5c-4.4-7.4-9.4-10.3-17.5-9.1
		c-1.8,0.3-3.6,0.4-5.4,0.5C31,10,44,11.5,47.2,16.5C60.6,37.3,74,58.1,87.1,79C89.4,82.6,91.8,84.3,95.8,84.2"/>
	<path class="st1" d="M41.4,118.7c-1.9-3.2-0.8-6.7-0.8-10c0-20.2,0.3-40.5,0.4-60.7c1.8,1,1.1,2.8,1.1,4.3c0,21.1,0,42.1,0,63.2
		C42.2,116.6,41.7,117.7,41.4,118.7"/>
	<path class="st3" d="M105.5,107.2c2.1,0.4,3.2,1.6,3.2,3.7c0,2.2-1,3.4-3.3,3.4c-2.4-0.1-3-1.8-3.1-3.7
		C102.2,108.5,103.3,107.2,105.5,107.2"/>
	<path class="st3" d="M37.1,111c0.2,2.6-1.4,3.9-3.5,4.3c-2.9,0.6-2.3-2.2-2.7-3.7c-0.5-2.3,0-4.3,2.9-4.1
		C35.7,107.6,37.2,108.7,37.1,111"/>
</g>
<text transform="matrix(1 0 0 1 4.2708 157.864)"><tspan x="0" y="0" class="st7 st8 st9">N</tspan><tspan x="15.6" y="0" class="st7 st8 st9 st10">A</tspan><tspan x="28.4" y="0" class="st7 st8 st9">TIONAL</tspan><tspan x="103.6" y="0" class="st7 st8 st9 st10">  </tspan><tspan x="111.5" y="0" class="st7 st8 st9">Y</tspan><tspan x="123.5" y="0" class="st7 st8 st9">OUTH SE</tspan><tspan x="211" y="0" class="st7 st8 st9">R</tspan><tspan x="224.1" y="0" class="st7 st8 st9">VICES  </tspan><tspan x="290.3" y="0" class="st7 st8 st9">C</tspan><tspan x="303.6" y="0" class="st7 st8 st9">OUNCIL</tspan></text>
</svg>
